{
  "accessors": [
    {
      "bufferView": 2,
      "componentType": 5126,
      "count": 18926,
      "max": [
        0.20522400736808777,
        0.27270099520683289,
        0.43394500017166138
      ],
      "min": [
        -0.20522400736808777,
        -0.27270099520683289,
        0.023496599867939949
      ],
      "type": "VEC3"
    },
    {
      "bufferView": 2,
      "byteOffset": 227112,
      "componentType": 5126,
      "count": 18926,
      "max": [
        1,
        1,
        1
      ],
      "min": [
        -1,
        -1,
        -1
      ],
      "type": "VEC3"
    },
    {
      "bufferView": 3,
      "componentType": 5126,
      "count": 18926,
      "max": [
        1,
        1,
        1,
        1
      ],
      "min": [
        -1,
        -1,
        -1,
        -1
      ],
      "type": "VEC4"
    },
    {
      "bufferView": 1,
      "componentType": 5126,
      "count": 18926,
      "max": [
        0.99746400117874146,
        0.99295300245285034
      ],
      "min": [
        0.0043560001067817211,
        0.0033849999308586121
      ],
      "type": "VEC2"
    },
    {
      "bufferView": 0,
      "componentType": 5125,
      "count": 82698,
      "max": [
        18925
      ],
      "min": [
        0
      ],
      "type": "SCALAR"
    },
    {
      "bufferView": 2,
      "byteOffset": 454224,
      "componentType": 5126,
      "count": 65532,
      "max": [
        1,
        0.064384602010250092,
        0.86612802743911743
      ],
      "min": [
        -0.8433459997177124,
        -0.23465399444103241,
        -0.86612802743911743
      ],
      "type": "VEC3"
    },
    {
      "bufferView": 2,
      "byteOffset": 1240608,
      "componentType": 5126,
      "count": 65532,
      "max": [
        1,
        1,
        1
      ],
      "min": [
        -1,
        -1,
        -1
      ],
      "type": "VEC3"
    },
    {
      "bufferView": 3,
      "byteOffset": 302816,
      "componentType": 5126,
      "count": 65532,
      "max": [
        1,
        1,
        1,
        1
      ],
      "min": [
        -1,
        -1,
        -1,
        -1
      ],
      "type": "VEC4"
    },
    {
      "bufferView": 1,
      "byteOffset": 151408,
      "componentType": 5126,
      "count": 65532,
      "max": [
        0.99841302633285522,
        0.99726301431655884
      ],
      "min": [
        0.0034320000559091568,
        0.0032130000181496143
      ],
      "type": "VEC2"
    },
    {
      "bufferView": 0,
      "byteOffset": 330792,
      "componentType": 5125,
      "count": 268281,
      "max": [
        65531
      ],
      "min": [
        0
      ],
      "type": "SCALAR"
    },
    {
      "bufferView": 2,
      "byteOffset": 2026992,
      "componentType": 5126,
      "count": 19977,
      "max": [
        0.10106399655342102,
        0.063156001269817352,
        0.86612802743911743
      ],
      "min": [
        -1,
        -0.24271200597286224,
        -0.1170630007982254
      ],
      "type": "VEC3"
    },
    {
      "bufferView": 2,
      "byteOffset": 2266716,
      "componentType": 5126,
      "count": 19977,
      "max": [
        1,
        1,
        0.99999988079071045
      ],
      "min": [
        -1,
        -1,
        -1
      ],
      "type": "VEC3"
    },
    {
      "bufferView": 3,
      "byteOffset": 1351328,
      "componentType": 5126,
      "count": 19977,
      "max": [
        1,
        1,
        1,
        1
      ],
      "min": [
        -1,
        -1,
        -0.99999994039535522,
        -1
      ],
      "type": "VEC4"
    },
    {
      "bufferView": 1,
      "byteOffset": 675664,
      "componentType": 5126,
      "count": 19977,
      "max": [
        0.99841302633285522,
        0.99726301431655884
      ],
      "min": [
        0.0034320000559091568,
        0.36580601334571838
      ],
      "type": "VEC2"
    },
    {
      "bufferView": 0,
      "byteOffset": 1403916,
      "componentType": 5125,
      "count": 82026,
      "max": [
        19976
      ],
      "min": [
        0
      ],
      "type": "SCALAR"
    }
  ],
  "asset": {
    "extras": {
      "author": "1majaxed (https://sketchfab.com/1majaxed)",
      "license": "CC-BY-4.0 (http://creativecommons.org/licenses/by/4.0/)",
      "source": "https://sketchfab.com/3d-models/satellite-f8bd72434281441db77e85ce830f89c1",
      "title": "Satellite"
    },
    "generator": "Sketchfab-4.78.0",
    "version": "2.0"
  },
  "bufferViews": [
    {
      "buffer": 0,
      "byteLength": 1732020,
      "byteOffset": 0,
      "name": "floatBufferViews",
      "target": 34963
    },
    {
      "buffer": 0,
      "byteLength": 835480,
      "byteOffset": 1732020,
      "byteStride": 8,
      "name": "floatBufferViews",
      "target": 34962
    },
    {
      "buffer": 0,
      "byteLength": 2506440,
      "byteOffset": 2567500,
      "byteStride": 12,
      "name": "floatBufferViews",
      "target": 34962
    },
    {
      "buffer": 0,
      "byteLength": 1670960,
      "byteOffset": 5073940,
      "byteStride": 16,
      "name": "floatBufferViews",
      "target": 34962
    }
  ],
  "buffers": [
    {
      "byteLength": 6744900,
      "uri": "scene.bin"
    }
  ],
  "images": [
    {
      "uri": "textures/phong2SG_metallicRoughness.png"
    },
    {
      "uri": "textures/phong2SG_normal.png"
    },
    {
      "uri": "textures/phong2SG_baseColor.jpeg"
    },
    {
      "uri": "textures/phong1SG_metallicRoughness.png"
    },
    {
      "uri": "textures/phong1SG_normal.png"
    },
    {
      "uri": "textures/phong1SG_baseColor.jpeg"
    }
  ],
  "materials": [
    {
      "doubleSided": true,
      "emissiveFactor": [
        0,
        0,
        0
      ],
      "name": "phong1SG",
      "normalTexture": {
        "index": 4,
        "scale": 1,
        "texCoord": 0
      },
      "occlusionTexture": {
        "index": 3,
        "strength": 1,
        "texCoord": 0
      },
      "pbrMetallicRoughness": {
        "baseColorFactor": [
          1,
          1,
          1,
          1
        ],
        "baseColorTexture": {
          "index": 5,
          "texCoord": 0
        },
        "metallicFactor": 1,
        "metallicRoughnessTexture": {
          "index": 3,
          "texCoord": 0
        },
        "roughnessFactor": 1
      }
    },
    {
      "doubleSided": true,
      "emissiveFactor": [
        0,
        0,
        0
      ],
      "name": "phong2SG",
      "normalTexture": {
        "index": 1,
        "scale": 1,
        "texCoord": 0
      },
      "occlusionTexture": {
        "index": 0,
        "strength": 1,
        "texCoord": 0
      },
      "pbrMetallicRoughness": {
        "baseColorFactor": [
          1,
          1,
          1,
          1
        ],
        "baseColorTexture": {
          "index": 2,
          "texCoord": 0
        },
        "metallicFactor": 1,
        "metallicRoughnessTexture": {
          "index": 0,
          "texCoord": 0
        },
        "roughnessFactor": 1
      }
    }
  ],
  "meshes": [
    {
      "name": "defaultMaterial",
      "primitives": [
        {
          "attributes": {
            "NORMAL": 1,
            "POSITION": 0,
            "TANGENT": 2,
            "TEXCOORD_0": 3
          },
          "indices": 4,
          "material": 1,
          "mode": 4
        }
      ]
    },
    {
      "name": "defaultMaterial",
      "primitives": [
        {
          "attributes": {
            "NORMAL": 6,
            "POSITION": 5,
            "TANGENT": 7,
            "TEXCOORD_0": 8
          },
          "indices": 9,
          "material": 0,
          "mode": 4
        }
      ]
    },
    {
      "name": "defaultMaterial",
      "primitives": [
        {
          "attributes": {
            "NORMAL": 11,
            "POSITION": 10,
            "TANGENT": 12,
            "TEXCOORD_0": 13
          },
          "indices": 14,
          "material": 0,
          "mode": 4
        }
      ]
    }
  ],
  "nodes": [
    {
      "children": [
        1
      ],
      "name": "RootNode (gltf orientation matrix)",
      "rotation": [
        -0.70710678118654746,
        -0,
        -0,
        0.70710678118654757
      ]
    },
    {
      "children": [
        2
      ],
      "matrix": [
        0.82474154233932495,
        0.53528296947479248,
        0.18241052329540253,
        0,
        -0.51451575756072998,
        0.84412229061126709,
        -0.15076836943626404,
        0,
        -0.23468051850795746,
        0.030491838231682777,
        0.97159421443939209,
        0,
        -1.0280000140028278e-07,
        7.744999948045006e-07,
        2.8869999368907884e-07,
        1
      ],
      "name": "RootNode (model correction matrix)"
    },
    {
      "children": [
        3,
        5
      ],
      "matrix": [
        1,
        0,
        0,
        0,
        0,
        -4.3711390063094768e-08,
        0.999999999999999,
        0,
        0,
        -0.999999999999999,
        -4.3711390063094768e-08,
        0,
        0,
        0,
        0,
        1
      ],
      "name": "Collada visual scene group"
    },
    {
      "children": [
        4
      ],
      "name": "g"
    },
    {
      "mesh": 0,
      "name": "defaultMaterial"
    },
    {
      "children": [
        6,
        7
      ],
      "name": "g"
    },
    {
      "mesh": 1,
      "name": "defaultMaterial"
    },
    {
      "mesh": 2,
      "name": "defaultMaterial"
    }
  ],
  "samplers": [
    {
      "magFilter": 9729,
      "minFilter": 9987,
      "wrapS": 10497,
      "wrapT": 10497
    }
  ],
  "scene": 0,
  "scenes": [
    {
      "name": "OSG_Scene",
      "nodes": [
        0
      ]
    }
  ],
  "textures": [
    {
      "sampler": 0,
      "source": 0
    },
    {
      "sampler": 0,
      "source": 1
    },
    {
      "sampler": 0,
      "source": 2
    },
    {
      "sampler": 0,
      "source": 3
    },
    {
      "sampler": 0,
      "source": 4
    },
    {
      "sampler": 0,
      "source": 5
    }
  ]
}

